# xmcd
#
# Track frame offsets: 
#        150
#        20583
#        43090
#        57343
#        74848
#        94376
#        111657
#        127359
#        143345
#        158604
#        184162
#        204390
#        246157
#        269074
#        283433
#        304645
#        320766
#        335737
#
# Disc length: 4764 seconds
#
# Revision: 1
# Processed by: cddbd v1.5.2PL0 Copyright (c) Steve Scherf et al.
# Submitted via: ExactAudioCopy v1.3
#
DISCID=2e129a12
DTITLE=Various Artist - Akella Presents - vol.53 - Rockin' Blues  201
DTITLE=5  CD2
DYEAR=2015
DGENRE=Blues
TTITLE0=Too Slim And The Taildraggers - Shape Of Blues To Come
TTITLE1=Johnny Graham - The Red, the White and the Blues
TTITLE2=Five Horse Johnson - Spillin' Fire
TTITLE3=Gentlemen's Blues Club - 2 Kinds Of Women
TTITLE4=Eric Street Band - The Journey
TTITLE5=Doug Varty - Now You're Talking
TTITLE6=Pat Ramsey and The Blues Disciples - Got Love If You Want It (Te
TTITLE6=xas)
TTITLE7=Keith Thompson and Strange Brew - Under Your Shadow
TTITLE8=Bobby Messano - Nickels And Dimes
TTITLE9=Mick Abrahams - Used To Being Down
TTITLE10=Jimmy Barnes - Dead And Laid To Rest
TTITLE11=Selwyn Birchwood - Brown Paper Bag
TTITLE12=Russell Morris - Bendigo Rock
TTITLE13=Scott Ellison - Shakin With the Blues
TTITLE14=Jimmy Hall and Greg Skaff - Money Talks
TTITLE15=George Thorogood and The Destroyers - Who Do You Love
TTITLE16=John Lawton - Payin' My Dues To The Blues (Reprise)
TTITLE17=Billy C. Farlow and Bleu Jackson - Don't Cry To Me
EXTD=
EXTT0=
EXTT1=
EXTT2=
EXTT3=
EXTT4=
EXTT5=
EXTT6=
EXTT7=
EXTT8=
EXTT9=
EXTT10=
EXTT11=
EXTT12=
EXTT13=
EXTT14=
EXTT15=
EXTT16=
EXTT17=
PLAYORDER=
